<?xml version="1.0" encoding="UTF-8"?><svg id="Layer_1" xmlns="http://www.w3.org/2000/svg" xmlns:xlink="http://www.w3.org/1999/xlink" viewBox="0 0 335.74 65.35"><defs><style>.cls-1{clip-path:url(#clippath-2);}.cls-2{fill:none;}.cls-2,.cls-3{stroke-width:0px;}.cls-4{clip-path:url(#clippath-1);}.cls-5{clip-path:url(#clippath);}.cls-3{fill:#bebebe;fill-rule:evenodd;}</style><clipPath id="clippath"><rect class="cls-2" x="11.87" y="8.67" width="312" height="48"/></clipPath><clipPath id="clippath-1"><rect class="cls-2" x="11.87" y="-13.33" width="312" height="69.94"/></clipPath><clipPath id="clippath-2"><rect class="cls-2" x="11.87" y="8.67" width="312" height="47.95"/></clipPath></defs><g class="cls-5"><g class="cls-4"><g class="cls-1"><path class="cls-3" d="M75.66,54.89l-5.85-38.21h-.21l-5.99,38.21h-12.32l8.28-44.84h20.09l8.24,44.84h-12.25Z"/><path class="cls-3" d="M134.89,54.89l-.27-38.19h-.2l-7.25,38.19h-11.56l-7.21-38.19h-.21l-.26,38.19h-11.46l1-44.84h18.42l5.37,32.57h.26l5.38-32.57h18.42l.99,44.84h-11.42Z"/><path class="cls-3" d="M188.82,46.2c-.2,1.8-.86,3.52-1.93,4.99-1.07,1.47-2.5,2.63-4.16,3.37-3.05,1.32-6.35,1.95-9.67,1.85-5,0-9-1.07-11.83-3.22-2.83-2.15-4.33-5.4-4.33-9.74v-3.54h12.1v2.2c0,1.76-.28,3.75,1.17,5,.89.71,2,1.06,3.13,1,.98.05,1.95-.2,2.78-.71.54-.45.96-1.02,1.24-1.66.27-.65.39-1.35.33-2.05.01-.55-.08-1.1-.27-1.62-1.11-2.79-5.59-4.87-10-7.38-4.41-2.51-8.86-5.46-9.81-10-.21-.97-.34-1.95-.36-2.94,0-1.02.08-2.05.25-3.06.23-1.72.89-3.35,1.92-4.75,1.03-1.4,2.39-2.51,3.97-3.25,3.04-1.31,6.32-1.93,9.63-1.81,2.48-.05,4.94.27,7.33.93,1.85.51,3.55,1.46,4.94,2.79.92.93,1.63,2.05,2.08,3.28.48,1.36.72,2.8.7,4.25v3.24h-11.32v-1.43c0-1.54.16-3.1-1.06-4.27-.8-.7-1.83-1.06-2.89-1-.92-.05-1.84.21-2.61.72-.6.54-1.04,1.24-1.26,2.01-.22.78-.21,1.6.02,2.37.61,2.49,5.12,4.49,9.7,7,4.58,2.51,9.21,5.56,10.21,10.13.18.9.28,1.81.3,2.73.04,1.53-.06,3.05-.3,4.56Z"/><path class="cls-3" d="M230.73,42.13c0,.84-.07,2.52-.11,3-.69,7.39-6,11.15-15.67,11.15s-14.99-3.76-15.71-11.15c-.05-.43-.13-2.11-.11-3V10.04h11.58v33.11c-.03.56,0,1.12.09,1.67.26.9.8,1.69,1.55,2.26.75.56,1.66.87,2.6.87s1.85-.31,2.6-.87c.75-.56,1.29-1.36,1.55-2.26.08-.55.11-1.11.1-1.67V10.04h11.54v32.09Z"/><path class="cls-3" d="M280.58,54.44h-16.11l-10.81-35.52h-.18l.6,35.52h-11.22V10.05h16.78l9.99,34.12h.23l-.59-34.12h11.31v44.39Z"/><path class="cls-3" d="M303.36,22.32c-.02-.7.04-1.39.17-2.08.21-.93,1.05-3.12,4.3-3.12s4.09,2.18,4.28,3.12c.09.55.14,1.1.14,1.66v2.63h11.53v-1.75c.02-.93-.01-1.87-.1-2.8-.9-9.22-9.08-11.14-15.76-11.14-8.63,0-14.86,3.25-15.81,11.13-.09.73-.18,2.15-.18,3v18.69c0,.85,0,1.47.16,2.95.74,8.15,7.86,11.14,15.84,11.14,6.56,0,12.57-3.5,14.24-6.21.89-1.5,1.42-3.19,1.56-4.93.1-.98.15-1.96.15-2.94v-12.1h-16.1v6.79h4.54v6.3c.01.56-.03,1.12-.11,1.67-.05.32-.63,3.13-4.38,3.13s-4.36-2.81-4.42-3.13c-.08-.55-.11-1.11-.09-1.67l.04-20.34Z"/><path class="cls-3" d="M44.05,38.95c-1.85-9.22-18.8-12.29-20.03-17.29-.16-.75-.16-1.53,0-2.28.42-1.91,1.75-2.88,3.89-2.88,2.56,0,4,1.49,4,3.9v2.86h11.39v-3.28c.07-1.39-.14-2.78-.62-4.09-.48-1.31-1.22-2.5-2.17-3.52-2.38-2.37-6.31-3.58-11.63-3.71-8.62-.19-13.26,2.71-15.45,6.79-.49,1.02-.83,2.1-1.02,3.21-.35,1.99-.32,4.02.11,6,1.95,9.21,17.78,11.87,20.05,17.55.34,1.04.37,2.15.08,3.21-.47,1.94-1.85,2.89-4.21,2.89s-4.31-1.39-4.31-3.9v-4.47h-12.26v3.59c0,7.58,4.72,13.12,16.33,13.12,8.32,0,14.85-2.87,15.91-10.31.4-2.45.38-4.95-.05-7.4Z"/></g></g></g></svg>